<svg width="20" height="20" viewBox="0 0 20 20" fill="none" xmlns="http://www.w3.org/2000/svg">
<g clip-path="url(#clip0)">
<path d="M18.7995 1.2003C17.9993 0.400101 17.0357 0 15.9089 0H4.09082C2.96404 0 2.00046 0.400101 1.20016 1.2003C0.400102 2.00061 0 2.96399 0 4.09097V15.9091C0 17.0358 0.400102 17.9993 1.20016 18.7997C2.00046 19.5999 2.96404 20 4.09082 20H15.9089C17.0357 20 17.999 19.5999 18.7995 18.7997C19.5998 17.9993 19.9999 17.0359 19.9999 15.9091V4.09097C19.9997 2.96419 19.5996 2.00061 18.7995 1.2003ZM18.1815 15.9091C18.1815 16.5339 17.9591 17.069 17.5141 17.5143C17.069 17.9593 16.5341 18.1815 15.9088 18.1815H4.09082C3.46579 18.1815 2.93076 17.9593 2.48563 17.5143C2.04061 17.069 1.81807 16.5339 1.81807 15.9091V4.09097C1.81807 3.46599 2.04061 2.93096 2.48563 2.48578C2.93076 2.04071 3.46579 1.81822 4.09082 1.81822H15.9089C16.5341 1.81822 17.069 2.04076 17.5141 2.48578C17.9591 2.93091 18.1815 3.46594 18.1815 4.09097V15.9091H18.1815Z" fill="black"/>
</g>
<defs>
<clipPath id="clip0">
<rect width="20" height="20" fill="white"/>
</clipPath>
</defs>
</svg>
