<svg width="334" height="50" viewBox="0 0 334 50" fill="none" xmlns="http://www.w3.org/2000/svg">
<path d="M48 5.34375V40.666C48 43.0391 45.9643 44.8848 43.3714 44.8848H4.62857C2.06786 44.875 0 43.0586 0 40.6562V5.34375C0 2.99023 2.01429 1.125 4.62857 1.125H43.3821C45.9536 1.125 48 2.96094 48 5.34375ZM44.0036 40.6562V5.34375C44.0036 5.05078 43.725 4.77734 43.3821 4.77734H42.3857L30.5679 12.0625L24 7.18945L17.4429 12.0625L5.625 4.76758H4.62857C4.28571 4.76758 4.00714 5.04102 4.00714 5.33398V40.6562C4.00714 40.9492 4.28571 41.2227 4.62857 41.2227H43.3821C43.725 41.2324 44.0036 40.959 44.0036 40.6562ZM16.0929 16.1641V19.7773H8.21786V16.1641H16.0929ZM16.0929 23.4297V27.0723H8.21786V23.4297H16.0929ZM17.2821 9.04492L23.0679 4.77734H10.3714L17.2821 9.04492ZM39.7821 16.1641V19.7773H18.7821V16.1641H39.7821ZM39.7821 23.4297V27.0723H18.7821V23.4297H39.7821ZM30.7179 9.04492L37.6286 4.77734H24.9429L30.7179 9.04492ZM39.7821 30.7148V34.3574H29.1321V30.7148H39.7821Z" fill="white"/>
<path d="M65.9102 37V8.36719H75.1875C78.7031 8.36719 80.9948 8.51042 82.0625 8.79688C83.7031 9.22656 85.0768 10.1641 86.1836 11.6094C87.2904 13.0417 87.8438 14.8971 87.8438 17.1758C87.8438 18.9336 87.5247 20.4115 86.8867 21.6094C86.2487 22.8073 85.4349 23.7513 84.4453 24.4414C83.4688 25.1185 82.4727 25.5677 81.457 25.7891C80.0768 26.0625 78.0781 26.1992 75.4609 26.1992H71.6914V37H65.9102ZM71.6914 13.2109V21.3359H74.8555C77.1341 21.3359 78.6576 21.1862 79.4258 20.8867C80.194 20.5872 80.793 20.1185 81.2227 19.4805C81.6654 18.8424 81.8867 18.1003 81.8867 17.2539C81.8867 16.2122 81.5807 15.3529 80.9688 14.6758C80.3568 13.9987 79.582 13.5755 78.6445 13.4062C77.9544 13.276 76.5677 13.2109 74.4844 13.2109H71.6914ZM91.2812 26.3359C91.2812 24.513 91.7305 22.7487 92.6289 21.043C93.5273 19.3372 94.7969 18.0352 96.4375 17.1367C98.0911 16.2383 99.9336 15.7891 101.965 15.7891C105.103 15.7891 107.674 16.8112 109.68 18.8555C111.685 20.8867 112.688 23.4583 112.688 26.5703C112.688 29.7083 111.672 32.3125 109.641 34.3828C107.622 36.4401 105.077 37.4688 102.004 37.4688C100.103 37.4688 98.2865 37.0391 96.5547 36.1797C94.8359 35.3203 93.5273 34.0638 92.6289 32.4102C91.7305 30.7435 91.2812 28.7188 91.2812 26.3359ZM96.9062 26.6289C96.9062 28.6862 97.3945 30.2617 98.3711 31.3555C99.3477 32.4492 100.552 32.9961 101.984 32.9961C103.417 32.9961 104.615 32.4492 105.578 31.3555C106.555 30.2617 107.043 28.6732 107.043 26.5898C107.043 24.5586 106.555 22.9961 105.578 21.9023C104.615 20.8086 103.417 20.2617 101.984 20.2617C100.552 20.2617 99.3477 20.8086 98.3711 21.9023C97.3945 22.9961 96.9062 24.5716 96.9062 26.6289ZM117.004 37V8.36719H122.492V37H117.004ZM128.332 37V8.60156H134.113V32.1758H148.488V37H128.332ZM156.691 22.5859L151.711 21.6875C152.271 19.6823 153.234 18.1979 154.602 17.2344C155.969 16.2708 158 15.7891 160.695 15.7891C163.143 15.7891 164.966 16.082 166.164 16.668C167.362 17.2409 168.202 17.9766 168.684 18.875C169.178 19.7604 169.426 21.3945 169.426 23.7773L169.367 30.1836C169.367 32.0065 169.452 33.3542 169.621 34.2266C169.803 35.0859 170.135 36.0104 170.617 37H165.188C165.044 36.6354 164.868 36.0951 164.66 35.3789C164.569 35.0534 164.504 34.8385 164.465 34.7344C163.527 35.6458 162.525 36.3294 161.457 36.7852C160.389 37.2409 159.25 37.4688 158.039 37.4688C155.904 37.4688 154.217 36.8893 152.98 35.7305C151.757 34.5716 151.145 33.1068 151.145 31.3359C151.145 30.1641 151.424 29.1224 151.984 28.2109C152.544 27.2865 153.326 26.5833 154.328 26.1016C155.344 25.6068 156.802 25.1771 158.703 24.8125C161.268 24.3307 163.046 23.8815 164.035 23.4648V22.918C164.035 21.8633 163.775 21.1146 163.254 20.6719C162.733 20.2161 161.75 19.9883 160.305 19.9883C159.328 19.9883 158.566 20.1836 158.02 20.5742C157.473 20.9518 157.03 21.6224 156.691 22.5859ZM164.035 27.0391C163.332 27.2734 162.219 27.5534 160.695 27.8789C159.172 28.2044 158.176 28.5234 157.707 28.8359C156.991 29.3438 156.633 29.9883 156.633 30.7695C156.633 31.5378 156.919 32.2018 157.492 32.7617C158.065 33.3216 158.794 33.6016 159.68 33.6016C160.669 33.6016 161.613 33.276 162.512 32.625C163.176 32.1302 163.612 31.5247 163.82 30.8086C163.964 30.3398 164.035 29.4479 164.035 28.1328V27.0391ZM188.508 37V33.8945C187.753 35.0013 186.757 35.8737 185.52 36.5117C184.296 37.1497 183 37.4688 181.633 37.4688C180.24 37.4688 178.99 37.1628 177.883 36.5508C176.776 35.9388 175.975 35.0794 175.48 33.9727C174.986 32.8659 174.738 31.3359 174.738 29.3828V16.2578H180.227V25.7891C180.227 28.7057 180.324 30.4961 180.52 31.1602C180.728 31.8112 181.099 32.332 181.633 32.7227C182.167 33.1003 182.844 33.2891 183.664 33.2891C184.602 33.2891 185.441 33.0352 186.184 32.5273C186.926 32.0065 187.434 31.3685 187.707 30.6133C187.98 29.8451 188.117 27.9766 188.117 25.0078V16.2578H193.605V37H188.508ZM218.176 37H212.688V26.4141C212.688 24.1745 212.57 22.7292 212.336 22.0781C212.102 21.4141 211.717 20.8997 211.184 20.5352C210.663 20.1706 210.031 19.9883 209.289 19.9883C208.339 19.9883 207.486 20.2487 206.73 20.7695C205.975 21.2904 205.454 21.9805 205.168 22.8398C204.895 23.6992 204.758 25.2878 204.758 27.6055V37H199.27V16.2578H204.367V19.3047C206.177 16.9609 208.456 15.7891 211.203 15.7891C212.414 15.7891 213.521 16.0104 214.523 16.4531C215.526 16.8828 216.281 17.4362 216.789 18.1133C217.31 18.7904 217.668 19.5586 217.863 20.418C218.072 21.2773 218.176 22.5078 218.176 24.1094V37ZM241.848 22.3906L236.438 23.3672C236.255 22.2865 235.839 21.4727 235.188 20.9258C234.549 20.3789 233.716 20.1055 232.688 20.1055C231.32 20.1055 230.227 20.5807 229.406 21.5312C228.599 22.4688 228.195 24.0443 228.195 26.2578C228.195 28.7188 228.605 30.457 229.426 31.4727C230.259 32.4883 231.372 32.9961 232.766 32.9961C233.807 32.9961 234.66 32.7031 235.324 32.1172C235.988 31.5182 236.457 30.4961 236.73 29.0508L242.121 29.9688C241.561 32.4427 240.487 34.3112 238.898 35.5742C237.31 36.8372 235.181 37.4688 232.512 37.4688C229.478 37.4688 227.056 36.5117 225.246 34.5977C223.449 32.6836 222.551 30.0339 222.551 26.6484C222.551 23.224 223.456 20.5612 225.266 18.6602C227.076 16.7461 229.523 15.7891 232.609 15.7891C235.135 15.7891 237.141 16.3359 238.625 17.4297C240.122 18.5104 241.197 20.1641 241.848 22.3906ZM251.496 8.36719V18.8945C253.267 16.8242 255.383 15.7891 257.844 15.7891C259.107 15.7891 260.246 16.0234 261.262 16.4922C262.277 16.9609 263.039 17.5599 263.547 18.2891C264.068 19.0182 264.419 19.8255 264.602 20.7109C264.797 21.5964 264.895 22.9701 264.895 24.832V37H259.406V26.043C259.406 23.8685 259.302 22.4883 259.094 21.9023C258.885 21.3164 258.514 20.8542 257.98 20.5156C257.46 20.1641 256.802 19.9883 256.008 19.9883C255.096 19.9883 254.283 20.2096 253.566 20.6523C252.85 21.0951 252.323 21.7656 251.984 22.6641C251.659 23.5495 251.496 24.8646 251.496 26.6094V37H246.008V8.36719H251.496ZM282.492 30.3984L287.961 31.3164C287.258 33.3216 286.145 34.8516 284.621 35.9062C283.111 36.9479 281.216 37.4688 278.938 37.4688C275.331 37.4688 272.661 36.2904 270.93 33.9336C269.562 32.0456 268.879 29.6628 268.879 26.7852C268.879 23.3477 269.777 20.6589 271.574 18.7188C273.371 16.7656 275.643 15.7891 278.391 15.7891C281.477 15.7891 283.911 16.8112 285.695 18.8555C287.479 20.8867 288.332 24.0052 288.254 28.2109H274.504C274.543 29.8385 274.986 31.1081 275.832 32.0195C276.678 32.918 277.733 33.3672 278.996 33.3672C279.855 33.3672 280.578 33.1328 281.164 32.6641C281.75 32.1953 282.193 31.4401 282.492 30.3984ZM282.805 24.8516C282.766 23.263 282.355 22.0586 281.574 21.2383C280.793 20.4049 279.842 19.9883 278.723 19.9883C277.525 19.9883 276.535 20.4245 275.754 21.2969C274.973 22.1693 274.589 23.3542 274.602 24.8516H282.805ZM298 37H292.512V16.2578H297.609V19.207C298.482 17.8138 299.263 16.8958 299.953 16.4531C300.656 16.0104 301.451 15.7891 302.336 15.7891C303.586 15.7891 304.79 16.1341 305.949 16.8242L304.25 21.6094C303.326 21.0104 302.466 20.7109 301.672 20.7109C300.904 20.7109 300.253 20.9258 299.719 21.3555C299.185 21.7721 298.762 22.5339 298.449 23.6406C298.15 24.7474 298 27.0651 298 30.5938V37Z" fill="white"/>
</svg>
